<svg xmlns="http://www.w3.org/2000/svg" xmlns:xlink="http://www.w3.org/1999/xlink" width="500" zoomAndPan="magnify" viewBox="0 0 375 374.999991" height="500" preserveAspectRatio="xMidYMid meet" version="1.0"><defs><g/></defs><g fill="#000000" fill-opacity="1"><g transform="translate(98.750374, 202.874987)"><g><path d="M 28.015625 -48.25 L 47.484375 0 L 35.671875 0 L 32.109375 -9.65625 L 13.75 -9.65625 L 10.171875 0 L -1.640625 0 L 17.84375 -48.25 Z M 28.359375 -19.296875 L 22.984375 -33.34375 L 22.875 -33.34375 L 17.484375 -19.296875 Z M 28.359375 -19.296875 "/></g></g></g><g fill="#000000" fill-opacity="1"><g transform="translate(137.869424, 202.874987)"><g><path d="M 33.859375 -13.5625 L 12.109375 -13.5625 C 12.109375 -11.457031 12.789062 -9.898438 14.15625 -8.890625 C 15.519531 -7.878906 17 -7.375 18.59375 -7.375 C 20.269531 -7.375 21.59375 -7.597656 22.5625 -8.046875 C 23.539062 -8.492188 24.65625 -9.378906 25.90625 -10.703125 L 33.390625 -6.953125 C 30.273438 -1.734375 25.09375 0.875 17.84375 0.875 C 13.3125 0.875 9.425781 -0.671875 6.1875 -3.765625 C 2.957031 -6.867188 1.34375 -10.601562 1.34375 -14.96875 C 1.34375 -19.332031 2.957031 -23.070312 6.1875 -26.1875 C 9.425781 -29.3125 13.3125 -30.875 17.84375 -30.875 C 22.59375 -30.875 26.457031 -29.5 29.4375 -26.75 C 32.425781 -24.007812 33.921875 -20.082031 33.921875 -14.96875 C 33.921875 -14.269531 33.898438 -13.800781 33.859375 -13.5625 Z M 12.40625 -19.296875 L 23.796875 -19.296875 C 23.566406 -20.859375 22.953125 -22.054688 21.953125 -22.890625 C 20.960938 -23.734375 19.6875 -24.15625 18.125 -24.15625 C 16.414062 -24.15625 15.050781 -23.707031 14.03125 -22.8125 C 13.019531 -21.914062 12.476562 -20.742188 12.40625 -19.296875 Z M 12.40625 -19.296875 "/></g></g></g><g fill="#000000" fill-opacity="1"><g transform="translate(166.404213, 202.874987)"><g><path d="M 5.265625 -30 L 5.265625 -41.171875 L 15.609375 -41.171875 L 15.609375 -30 L 21.9375 -30 L 21.9375 -22.109375 L 15.609375 -22.109375 L 15.609375 -12.578125 C 15.609375 -9.804688 16.390625 -8.421875 17.953125 -8.421875 C 18.347656 -8.421875 18.757812 -8.5 19.1875 -8.65625 C 19.613281 -8.8125 19.941406 -8.96875 20.171875 -9.125 L 20.53125 -9.359375 L 23.09375 -1 C 20.875 0.25 18.34375 0.875 15.5 0.875 C 13.550781 0.875 11.875 0.535156 10.46875 -0.140625 C 9.0625 -0.828125 8 -1.742188 7.28125 -2.890625 C 6.5625 -4.046875 6.046875 -5.253906 5.734375 -6.515625 C 5.421875 -7.785156 5.265625 -9.140625 5.265625 -10.578125 L 5.265625 -22.109375 L 0.9375 -22.109375 L 0.9375 -30 Z M 5.265625 -30 "/></g></g></g><g fill="#000000" fill-opacity="1"><g transform="translate(182.775854, 202.874987)"><g><path d="M 3.515625 0 L 3.515625 -50.296875 L 13.859375 -50.296875 L 13.859375 -26.84375 L 13.984375 -26.84375 C 16.671875 -29.53125 19.535156 -30.875 22.578125 -30.875 C 24.054688 -30.875 25.523438 -30.675781 26.984375 -30.28125 C 28.453125 -29.894531 29.859375 -29.289062 31.203125 -28.46875 C 32.546875 -27.65625 33.632812 -26.5 34.46875 -25 C 35.3125 -23.5 35.734375 -21.753906 35.734375 -19.765625 L 35.734375 0 L 25.375 0 L 25.375 -16.953125 C 25.375 -18.515625 24.878906 -19.878906 23.890625 -21.046875 C 22.898438 -22.222656 21.601562 -22.8125 20 -22.8125 C 18.4375 -22.8125 17.019531 -22.207031 15.75 -21 C 14.488281 -19.789062 13.859375 -18.441406 13.859375 -16.953125 L 13.859375 0 Z M 3.515625 0 "/></g></g></g><g fill="#000000" fill-opacity="1"><g transform="translate(214.702282, 202.874987)"><g><path d="M 33.859375 -13.5625 L 12.109375 -13.5625 C 12.109375 -11.457031 12.789062 -9.898438 14.15625 -8.890625 C 15.519531 -7.878906 17 -7.375 18.59375 -7.375 C 20.269531 -7.375 21.59375 -7.597656 22.5625 -8.046875 C 23.539062 -8.492188 24.65625 -9.378906 25.90625 -10.703125 L 33.390625 -6.953125 C 30.273438 -1.734375 25.09375 0.875 17.84375 0.875 C 13.3125 0.875 9.425781 -0.671875 6.1875 -3.765625 C 2.957031 -6.867188 1.34375 -10.601562 1.34375 -14.96875 C 1.34375 -19.332031 2.957031 -23.070312 6.1875 -26.1875 C 9.425781 -29.3125 13.3125 -30.875 17.84375 -30.875 C 22.59375 -30.875 26.457031 -29.5 29.4375 -26.75 C 32.425781 -24.007812 33.921875 -20.082031 33.921875 -14.96875 C 33.921875 -14.269531 33.898438 -13.800781 33.859375 -13.5625 Z M 12.40625 -19.296875 L 23.796875 -19.296875 C 23.566406 -20.859375 22.953125 -22.054688 21.953125 -22.890625 C 20.960938 -23.734375 19.6875 -24.15625 18.125 -24.15625 C 16.414062 -24.15625 15.050781 -23.707031 14.03125 -22.8125 C 13.019531 -21.914062 12.476562 -20.742188 12.40625 -19.296875 Z M 12.40625 -19.296875 "/></g></g></g><g fill="#000000" fill-opacity="1"><g transform="translate(243.23707, 202.874987)"><g><path d="M 3.515625 0 L 3.515625 -30 L 13.859375 -30 L 13.859375 -25.671875 L 13.984375 -25.671875 C 14.054688 -25.828125 14.179688 -26.019531 14.359375 -26.25 C 14.535156 -26.488281 14.914062 -26.898438 15.5 -27.484375 C 16.082031 -28.066406 16.703125 -28.59375 17.359375 -29.0625 C 18.023438 -29.53125 18.882812 -29.945312 19.9375 -30.3125 C 20.988281 -30.6875 22.0625 -30.875 23.15625 -30.875 C 24.289062 -30.875 25.398438 -30.71875 26.484375 -30.40625 C 27.578125 -30.09375 28.378906 -29.78125 28.890625 -29.46875 L 29.703125 -29.015625 L 25.375 -20.234375 C 24.09375 -21.328125 22.300781 -21.875 20 -21.875 C 18.75 -21.875 17.675781 -21.597656 16.78125 -21.046875 C 15.882812 -20.503906 15.25 -19.84375 14.875 -19.0625 C 14.507812 -18.28125 14.25 -17.617188 14.09375 -17.078125 C 13.9375 -16.535156 13.859375 -16.109375 13.859375 -15.796875 L 13.859375 0 Z M 3.515625 0 "/></g></g></g><g fill="#000000" fill-opacity="1"><g transform="translate(265.631806, 202.874987)"><g><path d="M 10.171875 -12.515625 C 12.046875 -12.515625 13.632812 -11.859375 14.9375 -10.546875 C 16.25 -9.242188 16.90625 -7.660156 16.90625 -5.796875 C 16.90625 -3.960938 16.25 -2.390625 14.9375 -1.078125 C 13.632812 0.222656 12.046875 0.875 10.171875 0.875 C 8.335938 0.875 6.769531 0.222656 5.46875 -1.078125 C 4.164062 -2.390625 3.515625 -3.960938 3.515625 -5.796875 C 3.515625 -7.660156 4.164062 -9.242188 5.46875 -10.546875 C 6.769531 -11.859375 8.335938 -12.515625 10.171875 -12.515625 Z M 10.171875 -12.515625 "/></g></g></g></svg>